<svg version="1.1" id="Layer_1" xmlns="http://www.w3.org/2000/svg" x="0px" y="0px" viewBox="0 0 1000 1000" style="enable-background:new 0 0 1000 1000" xml:space="preserve"><style>.st0{fill-rule:evenodd;clip-rule:evenodd;fill:#F58833}</style><path class="st0" d="M438.9,296.6h56.8l84.3,75.2c2,1.7,4.7,2,6.9,0.6c2.2-1.5,3-4,2.3-6.4l-82.1-262.7c-0.7-2.4-2.9-4-5.3-4 c-2.4,0-4.7,1.5-5.4,4l-62.9,186.1c-0.5,1.6-0.2,3.5,0.8,5.1C435.5,295.9,437.2,296.6,438.9,296.6z"/><path class="st0" d="M819,332.5H622.5c-2,0-3.6,1-4.6,2.4c-1,1.5-1.3,3.4-0.7,5.1l18.2,53.7l-44.6,103.8c-0.8,2.4-0.2,5,1.7,6.7 c2,1.6,4.8,1.7,7,0.3l222.7-161.7c2-1.4,2.9-4,2.1-6.3C823.6,334.1,821.4,332.5,819,332.5z"/><path class="st0" d="M344.6,458.3c1.7-0.6,3-2,3.6-3.8l16.9-54.3l96.7-57.9c2.2-1.3,3.3-3.9,2.7-6.4c-0.9-2.3-3-4.1-5.6-4.1H183.7 c-2.5,0-4.6,1.7-5.3,4c-0.7,2.2,0,4.9,2.1,6.3l158.9,115.4C340.9,458.6,342.9,458.9,344.6,458.3z"/><path class="st0" d="M394.2,449.1c-0.6-2.5-2.7-4.3-5.3-4.5c-2.5-0.2-4.8,1.4-5.6,3.9l-86.1,261.4c-0.7,2.4,0,5,2,6.5 c2.1,1.3,4.8,1.3,6.7,0l159.4-114.9c1.5-1,2.5-2.7,2.5-4.6c0-1.8-0.9-3.5-2.5-4.5l-46.3-33.2L394.2,449.1z"/><path class="st0" d="M693.7,720.3c2,1.4,4.6,1.5,6.6,0c2-1.5,3-4,2.2-6.4l-59.3-187.2c-0.6-1.6-1.9-3.1-3.7-3.6 c-1.7-0.6-3.7-0.3-5.3,0.8l-45.7,33.6L476,546.7c-2.5-0.2-4.9,1.4-5.9,3.7c-0.9,2.4-0.1,5.1,2,6.6L693.7,720.3z"/><polygon class="st0" points="493,406.6 493,521.2 533.6,521.2 533.6,369.5 499.2,369.5 455.8,388.7 462.7,420.3 492.5,406.6"/><path class="st0" d="M670.9,747.5h-12.3c-2.8,0-5.9-2.8-5.3-6.3c0.7-3.7,4.7-4.3,4.7-4.3h9.6v-8h-11c-16.8,2.2-8.8,18.6-8.8,18.6 h-7.1v8h30.2V747.5z"/><rect x="724.3" y="743.1" class="st0" width="20.8" height="117.9"/><polygon class="st0" points="684.1,840.4 645.6,840.4 645.6,861 704.7,861 704.7,743.1 684.1,743.1"/><rect x="645.5" y="765.7" class="st0" width="20.8" height="62"/><path class="st0" d="M522.8,840.5H419.5v-37.7h-69.1c-17.9,0-35.5,13.5-35.5,30V861h46.8v8.9c0,4.5-2.5,13-15.5,13h-68.2v-59.2 h-20.4v77.7h106.9c9.8,0,20-12,20-25.3v-35.4h-47.3v-7.6c0-3.9,4.6-9.9,13.3-9.9h48.5V861h144.4v-118h-20.8V840.5z"/><path class="st0" d="M564.1,818.9v41.9h37.8v12c0,1.8-2.2,9.5-8.1,9.5h-28.9v19h38.4c7.8,0,20.1-12.3,20.1-26.3v-86.8h-30.2 C574.7,788.2,564.1,809.9,564.1,818.9z M602.9,809.4v30.5h-17.5v-19.6C588.4,805.7,602.9,809.4,602.9,809.4z"/></svg>