<svg version="1.1" id="Layer_1" xmlns="http://www.w3.org/2000/svg" x="0px" y="0px" viewBox="0 0 136.8 79.2" style="enable-background:new 0 0 136.8 79.2" xml:space="preserve"><style>.st9{fill:#FFFFFF}.st29{fill:#C4C4C4}</style><g id="Layer_2_1_"><g id="Layer_1-2"><path d="M129.4,13c0-3.1-2.5-5.7-5.7-5.7c-0.2,0-0.4,0-0.6,0l-81.5,9.4v15.6h-5.3v8.3c0,6.1,5,11.1,11.2,11.1H64 c3.5-0.1,6.7-1.5,9.2-4l5.1,0.2c1.5,1.5,3.3,2.5,5.3,3.2v8h4.2c5.2,0,10-2.8,12.4-7.4h20.6c4.7,0,8.5-3.8,8.5-8.5v-2.5l0,0V13z" style="fill:#685D97"/><radialGradient id="SVGID_1_" cx="82.845" cy="36.1382" r="37.6921" gradientTransform="matrix(1 0 0 -1 0 69.4295)" gradientUnits="userSpaceOnUse"><stop offset="0" style="stop-color:#FFFFFF"/><stop offset="0.17" style="stop-color:#FFFFFF;stop-opacity:0.78"/><stop offset="0.4" style="stop-color:#FFFFFF;stop-opacity:0.5"/><stop offset="0.6" style="stop-color:#FFFFFF;stop-opacity:0.29"/><stop offset="0.78" style="stop-color:#FFFFFF;stop-opacity:0.13"/><stop offset="0.92" style="stop-color:#FFFFFF;stop-opacity:4.000000e-02"/><stop offset="1" style="stop-color:#FFFFFF;stop-opacity:0"/></radialGradient><path d="M129.4,13c0-3.1-2.5-5.7-5.7-5.7c-0.2,0-0.4,0-0.6,0l-81.5,9.4v15.6h-5.3v8.3c0,6.1,5,11.1,11.2,11.1H64 c3.5-0.1,6.7-1.5,9.2-4l5.1,0.2c1.5,1.5,3.3,2.5,5.3,3.2v8h4.2c5.2,0,10-2.8,12.4-7.4h20.6c4.7,0,8.5-3.8,8.5-8.5v-2.5l0,0V13z" style="fill:url(#SVGID_1_)"/><linearGradient id="SVGID_2_" gradientUnits="userSpaceOnUse" x1="87.68" y1="10.9548" x2="106.89" y2="10.9548" gradientTransform="matrix(1 0 0 -1 0 69.4295)"><stop offset="0" style="stop-color:#685D97"/><stop offset="0.12" style="stop-color:#685D97;stop-opacity:0.84"/><stop offset="0.41" style="stop-color:#685D97;stop-opacity:0.48"/><stop offset="0.67" style="stop-color:#685D97;stop-opacity:0.22"/><stop offset="0.88" style="stop-color:#685D97;stop-opacity:6.000000e-02"/><stop offset="1" style="stop-color:#685D97;stop-opacity:0"/></linearGradient><rect x="87.7" y="57.7" width="19.2" height="1.5" style="opacity:0.5;fill:url(#SVGID_2_);enable-background:new"/><linearGradient id="SVGID_3_" gradientUnits="userSpaceOnUse" x1="61.26" y1="18.3448" x2="80.47" y2="18.3448" gradientTransform="matrix(1 0 0 -1 0 69.4295)"><stop offset="0" style="stop-color:#685D97"/><stop offset="0.12" style="stop-color:#685D97;stop-opacity:0.84"/><stop offset="0.41" style="stop-color:#685D97;stop-opacity:0.48"/><stop offset="0.67" style="stop-color:#685D97;stop-opacity:0.22"/><stop offset="0.88" style="stop-color:#685D97;stop-opacity:6.000000e-02"/><stop offset="1" style="stop-color:#685D97;stop-opacity:0"/></linearGradient><rect x="61.3" y="50.3" width="19.2" height="1.5" style="opacity:0.5;fill:url(#SVGID_3_);enable-background:new"/><linearGradient id="SVGID_4_" gradientUnits="userSpaceOnUse" x1="46.523" y1="39.6148" x2="56.353" y2="36.7148" gradientTransform="matrix(1 0 0 -1 0 69.4295)"><stop offset="0" style="stop-color:#262262"/><stop offset="0.17" style="stop-color:#262262;stop-opacity:0.91"/><stop offset="0.45" style="stop-color:#262262;stop-opacity:0.66"/><stop offset="0.8" style="stop-color:#262262;stop-opacity:0.26"/><stop offset="1" style="stop-color:#262262;stop-opacity:0"/></linearGradient><path d="M50.3,15.8c0.3,0,0.6,0,0.9,0.1c1.3,0.3,2.4,1.3,2.8,2.6l6.3,27.8l-12.1-0.4l-1-29.6L50.3,15.8z" style="opacity:0.5;fill:url(#SVGID_4_);enable-background:new"/><path d="M20.2,4.7h14.9c7.5,0,13.5,6,13.5,13.5v28.4l0,0H20.2c-7.5,0-13.5-6-13.5-13.5V18.2 C6.8,10.8,12.8,4.7,20.2,4.7z" style="fill:#F47A20"/><radialGradient id="SVGID_5_" cx="40.6" cy="55.2747" r="27.03" gradientTransform="matrix(1 0 0 -1 0 69.4295)" gradientUnits="userSpaceOnUse"><stop offset="0" style="stop-color:#FFFFFF"/><stop offset="0.17" style="stop-color:#FFFFFF;stop-opacity:0.78"/><stop offset="0.4" style="stop-color:#FFFFFF;stop-opacity:0.5"/><stop offset="0.6" style="stop-color:#FFFFFF;stop-opacity:0.29"/><stop offset="0.78" style="stop-color:#FFFFFF;stop-opacity:0.13"/><stop offset="0.92" style="stop-color:#FFFFFF;stop-opacity:4.000000e-02"/><stop offset="1" style="stop-color:#FFFFFF;stop-opacity:0"/></radialGradient><path d="M20.2,4.7h14.9c7.5,0,13.5,6,13.5,13.5v28.4l0,0H20.2c-7.5,0-13.5-6-13.5-13.5V18.2 C6.8,10.8,12.8,4.7,20.2,4.7z" style="fill:url(#SVGID_5_)"/><linearGradient id="SVGID_6_" gradientUnits="userSpaceOnUse" x1="19.2223" y1="39.9448" x2="19.2223" y2="47.4948" gradientTransform="matrix(1 0 0 -1 0 69.4295)"><stop offset="0" style="stop-color:#3C2415;stop-opacity:0"/><stop offset="0.25" style="stop-color:#3C2415;stop-opacity:0.15"/><stop offset="0.65" style="stop-color:#3C2415;stop-opacity:0.55"/><stop offset="1" style="stop-color:#3C2415"/></linearGradient><path d="M23.3,29.5h-8.2l-2.8-7.2c-0.1-0.2,0-0.3,0.2-0.4c0,0,0.1,0,0.1,0h13.4c0.2,0,0.3,0.1,0.3,0.3 c0,0,0,0.1,0,0.1L23.3,29.5z" style="opacity:0.5;fill:url(#SVGID_6_);enable-background:new"/><linearGradient id="SVGID_7_" gradientUnits="userSpaceOnUse" x1="35.425" y1="32.9448" x2="35.425" y2="50.8048" gradientTransform="matrix(1 0 0 -1 0 69.4295)"><stop offset="0" style="stop-color:#3C2415;stop-opacity:0"/><stop offset="1" style="stop-color:#3C2415"/></linearGradient><path d="M27.6,19l2.9,17.5h9.8L43.2,19c0-0.2-0.1-0.3-0.2-0.3c0,0,0,0-0.1,0h-3.3l-4.3,9.8l-4.2-9.8h-3.3 C27.7,18.6,27.6,18.8,27.6,19C27.6,18.9,27.6,18.9,27.6,19z" style="opacity:0.5;fill:url(#SVGID_7_);enable-background:new"/><path class="st9" d="M12.4,18.6H26c0.2,0,0.3,0.1,0.3,0.3v2.7c0,0.2-0.1,0.3-0.3,0.3H12.4c-0.2,0-0.3-0.1-0.3-0.3v-2.7 C12.1,18.8,12.2,18.6,12.4,18.6z"/><path class="st9" d="M17.6,23.9v8.5c0,0.1,0.1,0.3,0.3,0.3c0,0,0,0,0,0h2.7c0.2,0,0.3-0.1,0.3-0.3c0,0,0,0,0,0v-7.4 c0-0.8-0.6-1.4-1.4-1.4l0,0h-1.6C17.7,23.6,17.6,23.8,17.6,23.9C17.6,23.9,17.6,23.9,17.6,23.9z"/><path class="st9" d="M41.9,21.8l1.2-2.7c0.1-0.1,0-0.3-0.1-0.4c0,0-0.1,0-0.1,0h-3c-0.1,0-0.2,0.1-0.3,0.2l-1.2,2.7 c-0.1,0.1,0,0.3,0.1,0.4c0,0,0.1,0,0.1,0h3C41.8,21.9,41.9,21.9,41.9,21.8z"/><path class="st9" d="M37.4,23.8l-1.8,4.1c-0.1,0.1-0.2,0.2-0.4,0.2c-0.1,0-0.1-0.1-0.2-0.2l-1.3-3c-0.3-0.7-1-1.2-1.8-1.2h-1.9 c-0.2,0-0.3,0.1-0.3,0.3c0,0,0,0.1,0,0.1l3.6,8.4c0,0.1,0.1,0.2,0.3,0.2h3.2c0.1,0,0.2-0.1,0.3-0.2l3.7-8.4 c0.1-0.1,0-0.3-0.1-0.4c0,0-0.1,0-0.1,0h-3C37.5,23.7,37.5,23.7,37.4,23.8z"/><path class="st9" d="M32.4,21.5l-1.2-2.8c0-0.1-0.1-0.2-0.3-0.2h-3c-0.2,0-0.3,0.1-0.3,0.3c0,0,0,0.1,0,0.1l1.2,2.7 c0,0.1,0.1,0.2,0.3,0.2h3c0.2,0,0.3-0.1,0.3-0.3C32.4,21.6,32.4,21.6,32.4,21.5z"/><radialGradient id="SVGID_8_" cx="27.82" cy="58.2547" r="33.64" gradientTransform="matrix(1 0 0 -1 0 69.4295)" gradientUnits="userSpaceOnUse"><stop offset="0" style="stop-color:#FFFFFF"/><stop offset="0.17" style="stop-color:#FFFFFF;stop-opacity:0.78"/><stop offset="0.4" style="stop-color:#FFFFFF;stop-opacity:0.5"/><stop offset="0.6" style="stop-color:#FFFFFF;stop-opacity:0.29"/><stop offset="0.78" style="stop-color:#FFFFFF;stop-opacity:0.13"/><stop offset="0.92" style="stop-color:#FFFFFF;stop-opacity:4.000000e-02"/><stop offset="1" style="stop-color:#FFFFFF;stop-opacity:0"/></radialGradient><path d="M40.4,9.1c-1.9-1.2-4-1.8-6.2-1.8H21.1c-6.5,0-11.8,5.3-11.9,11.8c0,0,0,0,0,0v13.1c0,2,0.5,3.9,1.4,5.6 C23.4,31.7,33.8,21.6,40.4,9.1z" style="opacity:0.5;fill:url(#SVGID_8_);enable-background:new"/><linearGradient id="SVGID_9_" gradientUnits="userSpaceOnUse" x1="44.15" y1="29.4648" x2="48.67" y2="29.4648" gradientTransform="matrix(1 0 0 -1 0 69.4295)"><stop offset="0" style="stop-color:#3C2415"/><stop offset="0.25" style="stop-color:#3C2415;stop-opacity:0.85"/><stop offset="0.65" style="stop-color:#3C2415;stop-opacity:0.45"/><stop offset="1" style="stop-color:#3C2415;stop-opacity:0"/></linearGradient><polygon points="44.2,35.4 48.7,38.4 48.7,44.5 44.2,44.5" style="opacity:0.5;fill:url(#SVGID_9_);enable-background:new"/><rect x="60.9" y="18.2" transform="matrix(0.7071 -0.7071 0.7071 0.7071 3.8368 51.0411)" class="st9" width="5.3" height="5.3"/><rect x="116.3" y="18.2" transform="matrix(0.7071 -0.7071 0.7071 0.7071 20.0568 90.1947)" class="st9" width="5.3" height="5.3"/><rect x="108.3" y="18.2" transform="matrix(0.7071 -0.7071 0.7071 0.7071 17.7097 84.5421)" class="st9" width="5.3" height="5.3"/><path class="st9" d="M71.2,30c-4.3-4.3-11.3-4.3-15.6,0.1c-2,2.1-3.2,4.8-3.2,7.7c0,0.9,0.1,1.7,0.3,2.6h10.5l2-4.9H58 c1.4-3,5-4.3,8-2.9c3,1.4,4.3,5,2.9,8c-0.7,1.4-1.8,2.5-3.3,3c-0.7,0.2-1.4,0.3-2.1,0.3H47c-1.6,0-2.8-1.3-2.8-2.8v-5.7h-4.8v5.3 c0,4.5,3.6,8.2,8.1,8.2h0h16.5c5.9-0.3,10.5-5.1,10.5-11C74.5,34.9,73.3,32.1,71.2,30z"/><rect x="112.3" y="12.5" transform="matrix(0.7071 -0.7071 0.7071 0.7071 22.9727 85.6769)" class="st9" width="5.3" height="5.3"/><path class="st9" d="M121.6,27.7V44h-4.4V28.5l-4.9,0.8V44h-3.2V29.8l-4.9,0.8V44h-5.3v-6.1c0-6-4.8-10.9-10.8-11l0,0 c-3,0-5.8,1.1-7.9,3.2c-2.1,2-3.3,4.9-3.2,7.8v0.3c0,2.8,1.2,5.5,3.2,7.5c1.9,2,4.6,3.2,7.3,3.2h5.2c-0.1,0.2-0.3,0.4-0.5,0.6 c-0.1,0.1-0.2,0.2-0.4,0.3l-0.1,0.1c-1.4,1.1-3.2,1.6-5,1.5v5h1.2c3,0.1,5.8-1.1,7.9-3.2c1.2-1.2,2.1-2.6,2.6-4.2H121 c3,0,5.5-2.4,5.5-5.5c0,0,0,0,0,0V27L121.6,27.7z M93.8,44h-6.2c-1.5,0-3-0.7-4-1.8c-1.2-1.1-1.8-2.6-1.8-4.2c0-3.3,2.7-6,6-6H88 c3.2,0.1,5.8,2.8,5.7,6V44z"/><g style="opacity:0.5"><linearGradient id="SVGID_10_" gradientUnits="userSpaceOnUse" x1="125.08" y1="29.7647" x2="125.08" y2="42.4848" gradientTransform="matrix(1 0 0 -1 0 69.4295)"><stop offset="0" style="stop-color:#A7A9AC;stop-opacity:0"/><stop offset="0.11" style="stop-color:#A7A9AC;stop-opacity:5.000000e-02"/><stop offset="0.3" style="stop-color:#A7A9AC;stop-opacity:0.19"/><stop offset="0.53" style="stop-color:#A7A9AC;stop-opacity:0.42"/><stop offset="0.8" style="stop-color:#A7A9AC;stop-opacity:0.74"/><stop offset="1" style="stop-color:#A7A9AC"/></linearGradient><polygon points="126.4,26.9 123.8,28.7 123.8,39.7 126.4,39.7" style="fill:url(#SVGID_10_)"/><linearGradient id="SVGID_11_" gradientUnits="userSpaceOnUse" x1="115.86" y1="28.2548" x2="115.86" y2="40.9648" gradientTransform="matrix(1 0 0 -1 0 69.4295)"><stop offset="0" style="stop-color:#A7A9AC;stop-opacity:0"/><stop offset="0.11" style="stop-color:#A7A9AC;stop-opacity:5.000000e-02"/><stop offset="0.3" style="stop-color:#A7A9AC;stop-opacity:0.19"/><stop offset="0.53" style="stop-color:#A7A9AC;stop-opacity:0.42"/><stop offset="0.8" style="stop-color:#A7A9AC;stop-opacity:0.74"/><stop offset="1" style="stop-color:#A7A9AC"/></linearGradient><polygon points="117.2,28.5 114.5,30.2 114.5,41.2 117.2,41.2" style="fill:url(#SVGID_11_)"/><linearGradient id="SVGID_12_" gradientUnits="userSpaceOnUse" x1="107.72" y1="26.9247" x2="107.72" y2="39.6448" gradientTransform="matrix(1 0 0 -1 0 69.4295)"><stop offset="0" style="stop-color:#A7A9AC;stop-opacity:0"/><stop offset="0.11" style="stop-color:#A7A9AC;stop-opacity:5.000000e-02"/><stop offset="0.3" style="stop-color:#A7A9AC;stop-opacity:0.19"/><stop offset="0.53" style="stop-color:#A7A9AC;stop-opacity:0.42"/><stop offset="0.8" style="stop-color:#A7A9AC;stop-opacity:0.74"/><stop offset="1" style="stop-color:#A7A9AC"/></linearGradient><polygon points="109.1,29.8 106.4,31.5 106.4,42.5 109.1,42.5" style="fill:url(#SVGID_12_)"/><linearGradient id="SVGID_13_" gradientUnits="userSpaceOnUse" x1="87.33" y1="16.8989" x2="96.39" y2="16.8989" gradientTransform="matrix(1 0 0 -1 0 69.4295)"><stop offset="0" style="stop-color:#A7A9AC"/><stop offset="0.2" style="stop-color:#A7A9AC;stop-opacity:0.74"/><stop offset="0.47" style="stop-color:#A7A9AC;stop-opacity:0.42"/><stop offset="0.7" style="stop-color:#A7A9AC;stop-opacity:0.19"/><stop offset="0.89" style="stop-color:#A7A9AC;stop-opacity:5.000000e-02"/><stop offset="1" style="stop-color:#A7A9AC;stop-opacity:0"/></linearGradient><path d="M95.3,48.8c-1.5,4.2-6.6,4.7-6.6,4.7l-2,2.7h1.2c2.9,0.1,5.8-1.1,7.8-3.2c1.2-1.2,2.1-2.6,2.6-4.2 L95.3,48.8z" style="fill:url(#SVGID_13_)"/><linearGradient id="SVGID_14_" gradientUnits="userSpaceOnUse" x1="43.7564" y1="31.7432" x2="46.6964" y2="25.7432" gradientTransform="matrix(1 0 0 -1 0 69.4295)"><stop offset="0" style="stop-color:#A7A9AC"/><stop offset="0.2" style="stop-color:#A7A9AC;stop-opacity:0.74"/><stop offset="0.47" style="stop-color:#A7A9AC;stop-opacity:0.42"/><stop offset="0.7" style="stop-color:#A7A9AC;stop-opacity:0.19"/><stop offset="0.89" style="stop-color:#A7A9AC;stop-opacity:5.000000e-02"/><stop offset="1" style="stop-color:#A7A9AC;stop-opacity:0"/></linearGradient><path d="M44.2,41.1v-5.7l-2.7,2v3.2c0,3.1,2.5,5.7,5.7,5.7h0h4V44H47C45.4,44,44.2,42.7,44.2,41.1z" style="fill:url(#SVGID_14_)"/><linearGradient id="SVGID_15_" gradientUnits="userSpaceOnUse" x1="63.4501" y1="30.521" x2="55.2301" y2="30.331" gradientTransform="matrix(1 0 0 -1 0 69.4295)"><stop offset="0" style="stop-color:#A7A9AC"/><stop offset="0.2" style="stop-color:#A7A9AC;stop-opacity:0.74"/><stop offset="0.47" style="stop-color:#A7A9AC;stop-opacity:0.42"/><stop offset="0.7" style="stop-color:#A7A9AC;stop-opacity:0.19"/><stop offset="0.89" style="stop-color:#A7A9AC;stop-opacity:5.000000e-02"/><stop offset="1" style="stop-color:#A7A9AC;stop-opacity:0"/></linearGradient><polygon points="61.8,37.6 63.3,40.4 52.8,40.4 53.1,37.6" style="fill:url(#SVGID_15_)"/><linearGradient id="SVGID_16_" gradientUnits="userSpaceOnUse" x1="93.1445" y1="39.7649" x2="89.7945" y2="34.6449" gradientTransform="matrix(1 0 0 -1 0 69.4295)"><stop offset="0" style="stop-color:#A7A9AC"/><stop offset="0.2" style="stop-color:#A7A9AC;stop-opacity:0.74"/><stop offset="0.47" style="stop-color:#A7A9AC;stop-opacity:0.42"/><stop offset="0.7" style="stop-color:#A7A9AC;stop-opacity:0.19"/><stop offset="0.89" style="stop-color:#A7A9AC;stop-opacity:5.000000e-02"/><stop offset="1" style="stop-color:#A7A9AC;stop-opacity:0"/></linearGradient><path d="M96.2,39.7v-2c0-2.2-0.8-4.4-2.4-6c-1.5-1.5-3.5-2.4-5.6-2.5l0,0c-2.2,0-4.4,0.9-5.9,2.5 c-0.2,0.2-0.4,0.4-0.6,0.7l1.3,2c0.2-0.2,0.3-0.4,0.5-0.5c1.1-1.2,2.6-1.8,4.2-1.8H88c1.5,0,3,0.7,4,1.8 c1.1,1.2,1.8,2.8,1.7,4.4v1.4L96.2,39.7z" style="fill:url(#SVGID_16_)"/><linearGradient id="SVGID_17_" gradientUnits="userSpaceOnUse" x1="68.57" y1="39.4752" x2="66.57" y2="36.4052" gradientTransform="matrix(1 0 0 -1 0 69.4295)"><stop offset="0" style="stop-color:#A7A9AC"/><stop offset="0.2" style="stop-color:#A7A9AC;stop-opacity:0.74"/><stop offset="0.47" style="stop-color:#A7A9AC;stop-opacity:0.42"/><stop offset="0.7" style="stop-color:#A7A9AC;stop-opacity:0.19"/><stop offset="0.89" style="stop-color:#A7A9AC;stop-opacity:5.000000e-02"/><stop offset="1" style="stop-color:#A7A9AC;stop-opacity:0"/></linearGradient><path d="M69.7,31.7c-1.5-1.5-3.5-2.4-5.6-2.5l0,0c-1.1,0-2.1,0.2-3.1,0.6l0.8,2.4c1-0.3,2.1-0.4,3.2-0.1 c0.3,0.1,0.7,0.2,1,0.3l0.4,0.2l0.5,0.3l0.4,0.3c0.1,0.1,0.2,0.2,0.3,0.3c0.1,0.1,0.3,0.2,0.4,0.3c0.4,0.4,0.7,0.8,1,1.3 c0,0.1,0.1,0.2,0.1,0.2c0.1,0.1,0.1,0.3,0.2,0.4c0.1,0.1,0.1,0.3,0.1,0.4c0,0.1,0.1,0.2,0.1,0.2h2.6C71.8,34.6,71,33,69.7,31.7z" style="fill:url(#SVGID_17_)"/><linearGradient id="SVGID_18_" gradientUnits="userSpaceOnUse" x1="118.1717" y1="48.802" x2="121.3817" y2="50.782" gradientTransform="matrix(1 0 0 -1 0 69.4295)"><stop offset="0" style="stop-color:#A7A9AC"/><stop offset="0.2" style="stop-color:#A7A9AC;stop-opacity:0.74"/><stop offset="0.47" style="stop-color:#A7A9AC;stop-opacity:0.42"/><stop offset="0.7" style="stop-color:#A7A9AC;stop-opacity:0.19"/><stop offset="0.89" style="stop-color:#A7A9AC;stop-opacity:5.000000e-02"/><stop offset="1" style="stop-color:#A7A9AC;stop-opacity:0"/></linearGradient><polygon points="118.9,17.2 117.9,20.9 122.6,20.9" style="fill:url(#SVGID_18_)"/><linearGradient id="SVGID_19_" gradientUnits="userSpaceOnUse" x1="118.3315" y1="46.6224" x2="122.4215" y2="49.1524" gradientTransform="matrix(1 0 0 -1 0 69.4295)"><stop offset="0" style="stop-color:#A7A9AC"/><stop offset="0.2" style="stop-color:#A7A9AC;stop-opacity:0.74"/><stop offset="0.47" style="stop-color:#A7A9AC;stop-opacity:0.42"/><stop offset="0.7" style="stop-color:#A7A9AC;stop-opacity:0.19"/><stop offset="0.89" style="stop-color:#A7A9AC;stop-opacity:5.000000e-02"/><stop offset="1" style="stop-color:#A7A9AC;stop-opacity:0"/></linearGradient><polygon points="117.9,20.9 118.9,24.6 122.6,20.9" style="fill:url(#SVGID_19_)"/><linearGradient id="SVGID_20_" gradientUnits="userSpaceOnUse" x1="110.1617" y1="48.802" x2="113.3717" y2="50.782" gradientTransform="matrix(1 0 0 -1 0 69.4295)"><stop offset="0" style="stop-color:#A7A9AC"/><stop offset="0.2" style="stop-color:#A7A9AC;stop-opacity:0.74"/><stop offset="0.47" style="stop-color:#A7A9AC;stop-opacity:0.42"/><stop offset="0.7" style="stop-color:#A7A9AC;stop-opacity:0.19"/><stop offset="0.89" style="stop-color:#A7A9AC;stop-opacity:5.000000e-02"/><stop offset="1" style="stop-color:#A7A9AC;stop-opacity:0"/></linearGradient><polygon points="110.9,17.2 109.9,20.9 114.6,20.9" style="fill:url(#SVGID_20_)"/><linearGradient id="SVGID_21_" gradientUnits="userSpaceOnUse" x1="110.3142" y1="46.618" x2="114.4142" y2="49.148" gradientTransform="matrix(1 0 0 -1 0 69.4295)"><stop offset="0" style="stop-color:#A7A9AC"/><stop offset="0.2" style="stop-color:#A7A9AC;stop-opacity:0.74"/><stop offset="0.47" style="stop-color:#A7A9AC;stop-opacity:0.42"/><stop offset="0.7" style="stop-color:#A7A9AC;stop-opacity:0.19"/><stop offset="0.89" style="stop-color:#A7A9AC;stop-opacity:5.000000e-02"/><stop offset="1" style="stop-color:#A7A9AC;stop-opacity:0"/></linearGradient><polygon points="109.9,20.9 110.9,24.6 114.6,20.9" style="fill:url(#SVGID_21_)"/><linearGradient id="SVGID_22_" gradientUnits="userSpaceOnUse" x1="114.1717" y1="54.582" x2="117.3817" y2="56.562" gradientTransform="matrix(1 0 0 -1 0 69.4295)"><stop offset="0" style="stop-color:#A7A9AC"/><stop offset="0.2" style="stop-color:#A7A9AC;stop-opacity:0.74"/><stop offset="0.47" style="stop-color:#A7A9AC;stop-opacity:0.42"/><stop offset="0.7" style="stop-color:#A7A9AC;stop-opacity:0.19"/><stop offset="0.89" style="stop-color:#A7A9AC;stop-opacity:5.000000e-02"/><stop offset="1" style="stop-color:#A7A9AC;stop-opacity:0"/></linearGradient><polygon points="114.9,11.4 113.9,15.1 118.6,15.1" style="fill:url(#SVGID_22_)"/><linearGradient id="SVGID_23_" gradientUnits="userSpaceOnUse" x1="114.3315" y1="52.4024" x2="118.4215" y2="54.9324" gradientTransform="matrix(1 0 0 -1 0 69.4295)"><stop offset="0" style="stop-color:#A7A9AC"/><stop offset="0.2" style="stop-color:#A7A9AC;stop-opacity:0.74"/><stop offset="0.47" style="stop-color:#A7A9AC;stop-opacity:0.42"/><stop offset="0.7" style="stop-color:#A7A9AC;stop-opacity:0.19"/><stop offset="0.89" style="stop-color:#A7A9AC;stop-opacity:5.000000e-02"/><stop offset="1" style="stop-color:#A7A9AC;stop-opacity:0"/></linearGradient><polygon points="113.9,15.1 114.9,18.9 118.6,15.1" style="fill:url(#SVGID_23_)"/><linearGradient id="SVGID_24_" gradientUnits="userSpaceOnUse" x1="62.8017" y1="48.802" x2="66.0117" y2="50.782" gradientTransform="matrix(1 0 0 -1 0 69.4295)"><stop offset="0" style="stop-color:#A7A9AC"/><stop offset="0.2" style="stop-color:#A7A9AC;stop-opacity:0.74"/><stop offset="0.47" style="stop-color:#A7A9AC;stop-opacity:0.42"/><stop offset="0.7" style="stop-color:#A7A9AC;stop-opacity:0.19"/><stop offset="0.89" style="stop-color:#A7A9AC;stop-opacity:5.000000e-02"/><stop offset="1" style="stop-color:#A7A9AC;stop-opacity:0"/></linearGradient><polygon points="63.5,17.2 62.5,20.9 67.3,20.9" style="fill:url(#SVGID_24_)"/><linearGradient id="SVGID_25_" gradientUnits="userSpaceOnUse" x1="62.9615" y1="46.6224" x2="67.0515" y2="49.1524" gradientTransform="matrix(1 0 0 -1 0 69.4295)"><stop offset="0" style="stop-color:#A7A9AC"/><stop offset="0.2" style="stop-color:#A7A9AC;stop-opacity:0.74"/><stop offset="0.47" style="stop-color:#A7A9AC;stop-opacity:0.42"/><stop offset="0.7" style="stop-color:#A7A9AC;stop-opacity:0.19"/><stop offset="0.89" style="stop-color:#A7A9AC;stop-opacity:5.000000e-02"/><stop offset="1" style="stop-color:#A7A9AC;stop-opacity:0"/></linearGradient><polygon points="62.5,20.9 63.5,24.6 67.3,20.9" style="fill:url(#SVGID_25_)"/></g></g></g><path class="st29" d="M10.4,71.1c-1.4,0-2.3-0.3-2.9-0.8c-0.6-0.6-0.8-1.4-0.8-2.3c0-0.8,0.3-1.4,0.4-1.9l1-0.3 c-0.4,0.6-0.4,1.1-0.4,1.9c0,1,0.3,1.5,0.6,1.9s1.4,0.6,2.3,0.6h1.9V66h0.8v5h-2.9V71.1z M9.8,73.1c-0.3-0.3-0.3-0.3-0.3-0.4 c0-0.3,0-0.3,0.3-0.4c0.3-0.3,0.3-0.3,0.4-0.3c0.3,0,0.3,0,0.4,0.3c0.3,0.3,0.3,0.3,0.3,0.4c0,0.3,0,0.3-0.3,0.4 c-0.3,0.1-0.3,0.3-0.4,0.3C10,73.3,9.8,73.3,9.8,73.1z"/><path class="st29" d="M14.3,73.6l0.3-0.8c0.4,0.3,0.8,0.3,1.1,0.3c0.6,0,1-0.3,1.1-0.4c0.3-0.4,0.4-0.8,0.4-1.5V66h0.8v4.4H19V71 h-1.1l0,0c0,1.9-0.8,2.6-2.5,2.6C15,73.9,14.6,73.9,14.3,73.6z"/><path class="st29" d="M18.8,70.4h0.4c1.1,0,2.3-0.3,3.1-0.6c-1.1-1.1-2.1-1.8-2.6-1.9v-0.6c1.1-1,2.3-1.4,3.1-1.4 c0.6,0,1.1,0.3,1.5,0.6c0.4,0.4,0.4,0.8,0.4,1.1c0,0.8-0.4,1.5-1.4,2.3c0.6,0.4,1.1,0.6,1.8,0.6h0.6v0.6h-0.8c-0.8,0-1.5-0.4-2.1-1 c-1,0.6-2.3,1-3.6,1h-0.3C18.8,71.1,18.8,70.4,18.8,70.4z M23,69.5c0.8-0.6,1-1.1,1-1.8c0-0.8-0.4-1.1-1.4-1.1 c-0.6,0-1.4,0.4-2.3,1C20.9,67.8,21.6,68.3,23,69.5z M22.3,64.6C22,64.4,22,64.4,22,64.3c0-0.3,0-0.3,0.3-0.4 c0.3-0.3,0.3-0.3,0.4-0.3c0.3,0,0.3,0,0.4,0.3c0.3,0.3,0.3,0.3,0.3,0.4c0,0.3,0,0.3-0.3,0.4c-0.3,0-0.3,0-0.4,0 C22.5,64.6,22.3,64.6,22.3,64.6z"/><path class="st29" d="M29.8,71.1c-1.4,0-2.1-0.4-2.5-1.1c-0.3,0.8-0.8,1.1-1.5,1.1h-0.3v-0.8c0.4,0,0.8-0.3,1-0.4 c0.3-0.4,0.4-0.8,0.4-1.5c0-0.8,0.3-1.4,0.6-1.9c0.6-0.6,1.1-0.8,1.9-0.8c1.5,0,2.3,0.8,2.3,2.5v2.1h1.1V71h-3.1v0.1H29.8z M30.9,68.5c0-1.4-0.6-1.9-1.5-1.9c-0.6,0-1,0.3-1.4,0.6c-0.4,0.4-0.4,0.8-0.4,1.4c0,0.8,0.3,1.1,0.6,1.5c0.4,0.4,1,0.6,1.5,0.6 h1.1V68.5z"/><path class="st29" d="M32.7,70.4h1.5v-6.9h0.8v7.6h-2.5v-0.8H32.7z"/><path class="st29" d="M37.3,63.5H38v6.9h1.1V71H37v-7.5H37.3z"/><path class="st29" d="M39.2,70.4h1.5V66h0.8v5h-2.5v-0.6H39.2z M40.2,73.1c-0.3-0.3-0.3-0.3-0.3-0.4c0-0.3,0-0.3,0.3-0.4 c0.3-0.3,0.3-0.3,0.4-0.3c0.3,0,0.3,0,0.4,0.3c0.3,0.3,0.3,0.3,0.3,0.4c0,0.3,0,0.3-0.3,0.4c-0.3,0.3-0.3,0.3-0.4,0.3 C40.3,73.3,40.2,73.3,40.2,73.1z"/><path class="st29" d="M48.1,71.1c-1.9,0-2.9-0.8-2.9-2.5c0-0.8,0.3-1.4,0.6-1.9c0.6-0.6,1.1-0.8,1.9-0.8c0.8,0,1.5,0.3,2.1,0.4v4 h1.4V71h-3.1V71.1z M49.2,66.8c-0.4-0.3-0.8-0.3-1.4-0.3s-1,0.3-1.4,0.6c-0.4,0.4-0.4,0.8-0.4,1.4c0,0.8,0.3,1.1,0.6,1.5 c0.4,0.4,1,0.6,1.5,0.6h1C49.2,70.6,49.2,66.8,49.2,66.8z M46.7,64.9c-0.3-0.3-0.3-0.3-0.3-0.4c0-0.3,0-0.3,0.3-0.4 c0.3-0.3,0.3-0.3,0.4-0.3c0.3,0,0.3,0,0.4,0.3c0.3,0.3,0.3,0.3,0.3,0.4c0,0.1,0,0.3-0.3,0.4c-0.3,0.3-0.3,0.3-0.4,0.3 C46.8,65,46.8,64.9,46.7,64.9z M48.2,64.9c0-0.3-0.3-0.3-0.3-0.4c0-0.3,0-0.3,0.3-0.4c0.3-0.3,0.3-0.3,0.4-0.3c0.3,0,0.3,0,0.4,0.3 c0.3,0.3,0.3,0.3,0.3,0.4c0,0.3,0,0.3-0.3,0.4c-0.3,0.3-0.3,0.3-0.4,0.3C48.4,65.1,48.4,64.9,48.2,64.9z"/><path class="st29" d="M51.1,70.4h1.5V66h0.8v4.4h1.8V71h-4.3v-0.6H51.1z M52.4,73.1c-0.3,0.3-0.3,0.3-0.4,0.3c-0.3,0-0.3,0-0.4-0.3 c-0.3-0.3-0.3-0.3-0.3-0.4c0-0.3,0-0.3,0.3-0.4c0.3-0.3,0.3-0.3,0.4-0.3c0.3,0,0.3,0,0.4,0.3c0.3,0.3,0.3,0.3,0.3,0.4 C52.6,72.9,52.4,72.9,52.4,73.1z M53.9,73.1c-0.3,0.3-0.3,0.3-0.4,0.3c-0.3,0-0.3,0-0.4-0.3c-0.3-0.3-0.3-0.3-0.3-0.4 c0-0.3,0-0.3,0.3-0.4c0.3-0.3,0.3-0.3,0.4-0.3c0.3,0,0.3,0,0.4,0.3c0.3,0.3,0.3,0.3,0.3,0.4C54.2,72.9,53.9,72.9,53.9,73.1z"/><path class="st29" d="M55.1,70.4h1.5V66h0.8v5h-2.5v-0.6H55.1z M56.8,64.6c-0.3-0.3-0.3-0.3-0.3-0.4c0-0.3,0-0.3,0.3-0.4 c0.3-0.3,0.3-0.3,0.4-0.3c0.3,0,0.3,0,0.4,0.3c0.3,0.3,0.3,0.3,0.3,0.4c0,0.3,0,0.3-0.3,0.4c-0.3,0.3-0.3,0.3-0.4,0.3 S56.8,64.6,56.8,64.6z"/><path class="st29" d="M59.1,73.6v-0.8c0.6,0.3,1.1,0.3,1.8,0.3c1.4,0,2.1-0.6,2.1-1.8V71h-1.1c-1.9,0-2.9-0.8-2.9-2.5 c0-0.8,0.3-1.4,0.6-1.9c0.6-0.6,1.1-0.8,1.9-0.8c0.8,0,1.5,0.3,2.1,0.4v5.1c0,0.8-0.3,1.1-0.6,1.8c-0.6,0.6-1.4,0.8-2.3,0.8 C60.3,73.9,59.7,73.9,59.1,73.6z M63.2,66.8c-0.4-0.3-1-0.3-1.5-0.3c-0.6,0-1,0.3-1.4,0.6c-0.4,0.4-0.4,0.8-0.4,1.4 c0,0.8,0.3,1.1,0.6,1.5c0.4,0.4,1,0.6,1.5,0.6h1v-3.9H63.2z"/><path class="st29" d="M64.8,73.6l0.3-0.8c0.4,0.3,0.8,0.3,1.1,0.3c0.6,0,1-0.3,1.1-0.4c0.3-0.4,0.4-0.8,0.4-1.5V66h0.8v4.4h1.1V71 h-1.1l0,0c0,1.9-0.8,2.6-2.5,2.6C65.7,73.9,65.3,73.9,64.8,73.6z"/><path class="st29" d="M69.7,70.4h1.5V66H72v4.4h1.1V71h-3.6v-0.6H69.7z M70.2,64.9C70,64.6,70,64.6,70,64.5c0-0.3,0-0.3,0.3-0.4 c0.3-0.3,0.3-0.3,0.4-0.3c0.3,0,0.3,0,0.4,0.3c0.3,0.3,0.3,0.3,0.3,0.4c0,0.1,0,0.3-0.3,0.4c-0.3,0.3-0.3,0.3-0.4,0.3 C70.5,65,70.5,64.9,70.2,64.9z M71.8,64.9c-0.3-0.3-0.3-0.3-0.3-0.4c0-0.3,0-0.3,0.3-0.4c0.3-0.3,0.3-0.3,0.4-0.3 c0.3,0,0.3,0,0.4,0.3c0.3,0.3,0.3,0.3,0.3,0.4c0,0.3,0,0.3-0.3,0.4c-0.3,0.3-0.3,0.3-0.4,0.3C72,65,72,64.9,71.8,64.9z"/><path class="st29" d="M73,70.4h3.6c0-1.1-0.3-1.9-0.8-2.6c-0.4-0.6-1.1-1-2.1-1.4v-0.6l4-2.5V64l-3,2c1,0.4,1.5,1,1.9,1.5 c0.4,0.8,0.8,1.8,0.8,2.9h1.1V71h-5.4v-0.6H73z"/><path class="st29" d="M78.3,70.4h1.5v-6.9h1v7.6h-2.5V70.4z"/><path class="st29" d="M82,73.3c0.4,0,0.6,0,0.8,0c-0.3,0-0.3-0.3-0.3-0.4c0-0.1,0.3-0.4,0.4-0.6c0.3-0.3,0.6-0.3,1-0.3 c0.3,0,0.4,0,0.6,0v0.6c-0.3,0-0.4,0-0.6,0c-0.4,0-0.6,0.3-0.6,0.4c0,0.1,0.3,0.5,0.9,0.5h0.6v0.6h-2.5v-0.8H82V73.3z M83,63.5h0.8 v7.6H83V63.5z"/><path class="st29" d="M90.2,71.1c-1.9,0-2.9-0.8-2.9-2.5c0-0.8,0.3-1.4,0.6-1.9c0.6-0.6,1.1-0.8,1.9-0.8c1.5,0,2.3,0.8,2.3,2.5v2.9 h-1.9V71.1z M91.6,68.5c0-1.4-0.6-1.9-1.5-1.9c-0.6,0-1,0.3-1.4,0.6s-0.4,0.8-0.4,1.4c0,0.8,0.3,1.1,0.6,1.5c0.4,0.4,1,0.6,1.5,0.6 h1.1C91.6,70.6,91.6,68.5,91.6,68.5z M88.9,64.9c-0.3-0.3-0.3-0.3-0.3-0.4c0-0.3,0-0.3,0.3-0.4c0.3-0.3,0.3-0.3,0.4-0.3 c0.1,0,0.3,0,0.4,0.3c0.3,0.3,0.3,0.3,0.3,0.4c0,0.1,0,0.3-0.3,0.4c-0.3,0.3-0.3,0.3-0.4,0.3C89.1,65,88.9,64.9,88.9,64.9z M90.4,64.9c-0.3-0.3-0.3-0.3-0.3-0.4c0-0.3,0-0.3,0.3-0.4c0.3-0.3,0.3-0.3,0.4-0.3c0.3,0,0.3,0,0.4,0.3c0.3,0.3,0.3,0.3,0.3,0.4 c0,0.3,0,0.3-0.3,0.4c-0.3,0.3-0.3,0.3-0.4,0.3C90.6,65,90.4,64.9,90.4,64.9z"/><path class="st29" d="M93.2,73.6l0.3-0.8c0.4,0.3,0.8,0.3,1.1,0.3c0.6,0,1-0.3,1.1-0.4c0.3-0.4,0.4-0.8,0.4-1.5V66h0.8v4.4H98V71 h-1.1l0,0c0,1.9-0.8,2.6-2.5,2.6C94.1,73.9,93.7,73.9,93.2,73.6z M96.1,64.6c-0.3-0.3-0.3-0.3-0.3-0.4c0-0.3,0-0.3,0.3-0.4 c0.3-0.3,0.3-0.3,0.4-0.3c0.1,0,0.3,0,0.4,0.3c0.3,0.3,0.3,0.3,0.3,0.4c0,0.3,0,0.3-0.3,0.4c-0.3,0.3-0.3,0.3-0.4,0.3 C96.4,64.9,96.1,64.6,96.1,64.6z"/><path class="st29" d="M97.9,70.4h0.8c0.3,0,0.6,0,0.8,0c-0.6-0.4-0.8-1-0.8-1.9c0-0.8,0.3-1.4,0.8-1.9c0.4-0.6,1.1-0.8,1.9-0.8 s1.4,0.3,1.8,0.6c0.4,0.4,0.8,1.1,0.8,1.9c0,1-0.4,1.5-1,2.1c0.4,0,0.8,0,1,0h0.8V71H98v-0.6H97.9z M102.4,70 c0.4-0.4,0.6-0.8,0.6-1.5c0-1.4-0.6-1.9-1.5-1.9c-0.4,0-0.8,0.3-1.1,0.4c-0.4,0.4-0.6,0.8-0.6,1.5c0,1.4,0.6,1.9,1.8,1.9 C101.5,70.4,101.9,70.3,102.4,70z M100.7,64.6c-0.3-0.3-0.3-0.3-0.3-0.4c0-0.3,0-0.3,0.3-0.4c0.3-0.3,0.3-0.3,0.4-0.3 s0.3,0,0.4,0.3c0.3,0.3,0.3,0.3,0.3,0.4c0,0.3,0,0.3-0.3,0.4c-0.3,0.3-0.3,0.3-0.4,0.3S101,64.6,100.7,64.6z"/><path class="st29" d="M104.3,70.4h1.5v-6.9h0.8v6.9h1.1V71H104v-0.6H104.3z"/><path class="st29" d="M107.9,70.4h1.5V66h0.8v5h-2.5v-0.6H107.9z M108.5,64.9c-0.3-0.3-0.3-0.3-0.3-0.4c0-0.3,0-0.3,0.3-0.4 c0.3-0.3,0.3-0.3,0.4-0.3c0.3,0,0.3,0,0.4,0.3c0.3,0.3,0.3,0.3,0.3,0.4c0,0.1,0,0.3-0.3,0.4c-0.3,0.3-0.3,0.3-0.4,0.3 C108.9,65,108.6,64.9,108.5,64.9z M110,64.9c-0.3-0.3-0.3-0.3-0.3-0.4c0-0.3,0-0.3,0.3-0.4c0.3-0.3,0.3-0.3,0.4-0.3 c0.3,0,0.3,0,0.4,0.3c0.3,0.3,0.3,0.3,0.3,0.4c0,0.3,0,0.3-0.3,0.4c-0.3,0.3-0.3,0.3-0.4,0.3C110.1,65,110.1,64.9,110,64.9z"/><path class="st29" d="M118.4,63.5h0.8v7.1c0,1-0.3,1.9-0.8,2.3c-0.4,0.4-1,0.8-1.9,0.8c-0.8,0-1.4-0.3-1.9-0.6 c-0.6-0.6-0.8-1.4-0.8-2.3c0-0.8,0-1.5,0.3-2.1l0.8-0.3c-0.3,0.8-0.4,1.5-0.4,2.1c0,1.5,0.6,2.5,1.9,2.5c1.1,0,1.8-0.8,1.8-2.3 v-7.3H118.4z"/><path class="st29" d="M120.8,73.6v-0.8c0.6,0.3,1.1,0.3,1.8,0.3c1.4,0,2.1-0.6,2.1-1.8V71h-1.1c-1.9,0-2.9-0.8-2.9-2.5 c0-0.8,0.3-1.4,0.6-1.9c0.6-0.6,1.1-0.8,1.9-0.8s1.5,0.3,2.1,0.4v5.1c0,0.8-0.3,1.1-0.6,1.8c-0.6,0.6-1.4,0.8-2.3,0.8 C121.9,73.9,121.3,73.9,120.8,73.6z M124.8,66.8c-0.4-0.3-0.8-0.3-1.4-0.3s-1,0.3-1.4,0.6c-0.4,0.4-0.4,0.8-0.4,1.4 c0,0.8,0.3,1.1,0.6,1.5c0.4,0.4,1,0.6,1.5,0.6h1C124.8,70.6,124.8,66.8,124.8,66.8z"/><path class="st29" d="M126.7,62.8c0.4,0,0.6,0,0.8,0c-0.3-0.3-0.4-0.3-0.4-0.6c0-0.3,0.3-0.6,0.4-0.8c0.3-0.3,0.6-0.4,1-0.4 c0.3,0,0.4,0,0.6,0v0.6c-0.4,0-0.6,0-0.6,0c-0.4,0-0.6,0.3-0.6,0.4c0,0.4,0.4,0.6,1,0.6h0.6v0.6h-2.5v-0.4h-0.3V62.8z M127.7,63.9 h0.8v7.3h-0.8V63.9z"/></svg>