<svg version="1.1" id="Layer_1" xmlns="http://www.w3.org/2000/svg" x="0px" y="0px" viewBox="0 0 800 800" style="enable-background:new 0 0 800 800" xml:space="preserve"><style>.st0{fill:#1E22B4}.st1{fill:#E72987}</style><path class="st0" d="M318.9,549.8c0,5.8-4.8,10.3-10.3,10.3c-5.8,0-10.3-4.8-10.3-10.3c0-5.8,4.8-10.3,10.3-10.3 S318.6,544,318.9,549.8z M413.7,549.8c0,5.8-4.8,10.3-10.3,10.3c-5.8,0-10.3-4.8-10.3-10.3c0-5.8,4.8-10.3,10.3-10.3 C409.2,539.4,413.7,544,413.7,549.8z M318.9,573.7c0,5.8-4.8,10.3-10.3,10.3c-5.8,0-10.3-4.8-10.3-10.3c0-5.8,4.8-10.3,10.3-10.3 S318.6,567.9,318.9,573.7z"/><path class="st0" d="M325.9,445.8v67.1c0,11.6-7.6,18.7-18.7,18.7h-24.7v11.1c0,17.7-14.4,32.5-32.3,32.3 c-24-0.5-31.5-22.4-31.5-33v-10.6h-24c-3.3,23.7-23.7,42.1-48.2,42.1c-26.7,0-48.7-21.9-48.7-48.7v-21.7h20.2v20.4 c0,17.2,11.9,29.8,28.5,29.8c16.4,0,28.5-12.6,28.5-29.8v-60.3h20.2v47.9h23.5v-56.8h20.2v88c0,4.3,2.3,12.4,11.9,12.4 c6.6,0,11.6-4.8,11.6-12.6v-96.4h20.2v65.6H306v-65.6h20.2H325.9z M697.2,486.7c7.8,12.1,6.3,28-5.3,38.6 c-8.8,6.1-14.4,6.3-22.4,6.3h-53l9.8-20.2h23.5l-14.1-22.7c0,0-16.9,26.7-21.4,36.8c-6.1,13.1,4.5,30,21.4,30 c8.8,0,18.9-5.8,21.7-16.9l1-3.3h19.7l-0.5,3.3c-3.5,25.5-24.2,36.8-42.1,36.8c-22.4,0-42.6-14.9-42.9-43.9h-47.9v11.6 c0,17.4-14.1,31.8-31.8,31.8c-24,0-31.8-22.2-31.8-33v-10.6H370.3v13.4c-0.3,10.8-3.5,37.8-36.3,39.3h-7.3v-19.9h7.3 c11.4-0.8,16.1-7.8,16.1-20.9v-80h19.9v47.9h23.5v-65.3h20.2v65.6h23.5v-48.2h19.9v47.9h23.5v-56.8h20.2v88 c0,3.3,2.3,12.4,11.9,12.4c6.6,0,11.9-5.3,11.6-11.9v-97.1h20.2v65.8h25c-3.3-10.6,0.3-19.7,3.5-24.7l31-50.4 c2.5-4.3,6.1-6.8,11.1-6.8s9.3,3.8,11.9,8.3c0.8,1,45.7,73.7,45.7,73.7c7.1,0,11.1-8.8,6.6-16.1l-24-38.8l-5.8,9.3l-7.1-10.8 l-5-7.6l6.8-10.8c2.5-4.5,5.8-7.3,11.1-7.3c4.8,0,8.6,2.8,11.1,7.1L697.2,486.7L697.2,486.7z M623.1,469.6l-8.1-13.6l-13.1,20.9 L591,494.5c-2,3.3-2.5,6.6-2,9.1c0.8,4.3,4.3,7.3,8.1,7.6L623.1,469.6z"/><g><path class="st0" d="M492.9,359.9V257.7c0-23.2-18.6-41.8-41.8-41.8H348.9c-23.2,0-41.8,18.6-41.8,41.8v102.2 c0,23.2,18.6,41.8,41.8,41.8h102.2C474.3,401.7,492.9,383.1,492.9,359.9z"/><path class="st1" d="M448.8,331.2c-5.4,4.3-12.8,6.6-19.7,5.8h-42.6c-0.4,0-0.8,0-1.2-0.4c-1.2-0.8-1.5-1.9-0.8-3.1l7-13.9 c0.4-0.8,1.2-1.2,1.9-1.2h38.3c6.2,0,9.7-7.7,5.8-14.3l-20.1-31.7c0,0,0-0.4-0.4-0.4c-0.8-0.8-1.9-0.4-2.3,0.4l-1.5,2.7 c-0.4,0.4-0.4,0.4-0.8,0.4c-0.4,0-0.8-0.4-0.8-0.4l-8.9-14.3c-0.4-0.8-0.4-1.5,0-2.3l3.9-6.2c1.9-3.9,5.8-6.2,10.1-6.2 c3.9,0,7.7,2.3,9.7,6.2l27.5,44.5C461.1,308,458.8,322.3,448.8,331.2z"/><path class="st1" d="M432.9,342.1c1.5,0.4,2.3,1.5,1.9,3.1c-3.1,20.5-19.3,31-36.8,31c-19-0.4-36-12.4-37.5-35.6v-3.9 c-1.5,0-3.1-0.4-4.3-0.8c-7.7-2.7-13.9-8.9-16.3-16.6c-0.4-0.8-0.8-1.9-0.8-2.7v-5.4c0-5,1.5-10.1,4.3-14.3l27.5-44.9 c1.9-3.9,5.8-6.2,10.1-6.2c4.6,0.4,8.5,3.1,10.4,7.4c0.8,0.8,27.5,44.1,35.2,56.5c0.4,0.4,0.4,0.8,0.4,1.2c0,1.5-1.2,2.3-2.3,2.3 h-15.9c-0.8,0-1.5-0.4-1.9-1.2l-5.4-8.9l-19.3-31c0,0,0-0.4-0.4-0.4c-0.8-0.8-1.9-0.4-2.3,0.4l-19.7,31.7c-1.2,1.5-1.9,3.9-1.9,5.8 c-0.8,4.6,2.7,8.5,7,8.9l18.2-28.6c0.4-0.4,0.4-0.8,0.8-0.8c1.2-0.4,2.3-0.4,3.1,0.8l7.7,12.8c0.4,0.8,0.4,1.5,0,2.3 c-2.7,4.3-11.6,18.6-15.1,26.3c-0.8,1.9-1.5,3.5-1.5,5.4v3.5c1.2,8.1,6.6,14.7,14.3,17c10.8,3.1,22.1-3.1,25.2-13.5 c0-0.8,1.2-1.5,1.9-1.5L432.9,342.1C433.3,342.1,433.3,342.1,432.9,342.1z"/></g></svg>