<svg xmlns="http://www.w3.org/2000/svg" xmlns:xlink="http://www.w3.org/1999/xlink" zoomAndPan="magnify" preserveAspectRatio="xMidYMid meet" version="1.0" viewBox="5.87 147.13 363.96 81"><defs><g/><clipPath id="73e45e0d62"><path d="M 5.867188 147.125 L 72.617188 147.125 L 72.617188 228.125 L 5.867188 228.125 Z M 5.867188 147.125 " clip-rule="nonzero"/></clipPath></defs><g clip-path="url(#73e45e0d62)"><path fill="#ffffff" d="M 48.9375 174.59375 C 49.796875 172.386719 49.367188 169.804688 47.539062 168.027344 L 38.679688 159.089844 C 38.195312 158.601562 37.445312 158.601562 36.960938 159.089844 C 36.476562 159.574219 36.476562 160.328125 36.960938 160.8125 L 41.792969 165.65625 C 42.277344 166.140625 42.277344 166.949219 41.792969 167.378906 C 41.3125 167.863281 40.558594 167.863281 40.074219 167.378906 L 35.242188 162.535156 C 34.757812 162.050781 34.007812 162.050781 33.523438 162.535156 C 33.042969 163.019531 33.042969 163.773438 33.523438 164.257812 L 38.359375 169.101562 C 38.839844 169.585938 38.839844 170.339844 38.359375 170.824219 C 38.089844 171.09375 37.820312 171.203125 37.5 171.203125 C 37.175781 171.203125 36.855469 171.09375 36.640625 170.824219 L 31.804688 165.980469 C 31.324219 165.496094 30.570312 165.496094 30.085938 165.980469 C 29.871094 166.195312 29.710938 166.519531 29.710938 166.839844 C 29.710938 167.164062 29.820312 167.488281 30.085938 167.703125 L 39 176.640625 C 40.773438 178.417969 43.351562 178.902344 45.554688 178.039062 L 63.652344 196.023438 C 63.382812 196.457031 63.113281 196.886719 62.792969 197.316406 C 61.878906 198.609375 60.859375 199.847656 59.675781 200.976562 L 39.269531 221.4375 L 18.972656 201.085938 C 13.492188 195.648438 10.539062 188.378906 10.539062 180.679688 C 10.539062 177.824219 10.96875 175.078125 11.722656 172.386719 C 11.777344 172.28125 11.777344 172.117188 11.828125 172.011719 L 28.796875 188.757812 C 27.777344 191.878906 29.28125 196.347656 32.773438 199.902344 C 37.175781 204.316406 43.03125 205.554688 45.929688 202.648438 C 48.777344 199.792969 47.539062 193.871094 43.191406 189.457031 C 39.644531 185.957031 35.1875 184.449219 32.074219 185.472656 L 13.761719 167.433594 C 15.105469 164.847656 16.824219 162.425781 18.972656 160.328125 C 24.394531 154.886719 31.589844 151.871094 39.269531 151.871094 C 46.949219 151.871094 54.144531 154.886719 59.621094 160.328125 C 65.046875 165.765625 68.054688 173.035156 68.054688 180.734375 C 68.054688 184.503906 67.355469 188.109375 65.960938 191.503906 Z M 62.84375 157.042969 C 56.5625 150.742188 48.183594 147.242188 39.269531 147.242188 C 30.355469 147.242188 21.980469 150.742188 15.695312 157.042969 C 13.601562 159.140625 11.777344 161.511719 10.324219 164.042969 C 10.164062 164.3125 10.003906 164.578125 9.84375 164.902344 C 9.199219 166.035156 8.660156 167.21875 8.175781 168.457031 C 8.125 168.566406 8.070312 168.671875 8.015625 168.832031 C 6.621094 172.601562 5.867188 176.585938 5.867188 180.734375 C 5.867188 189.671875 9.359375 198.070312 15.640625 204.371094 L 39.269531 228.007812 L 62.84375 204.371094 C 63.972656 203.238281 65.046875 202 66.011719 200.710938 C 66.335938 200.277344 66.605469 199.902344 66.925781 199.472656 C 67.410156 198.769531 67.894531 198.015625 68.269531 197.261719 C 68.699219 196.507812 69.074219 195.753906 69.449219 195 C 71.542969 190.585938 72.617188 185.742188 72.617188 180.734375 C 72.617188 171.742188 69.183594 163.339844 62.84375 157.042969 Z M 62.84375 157.042969 " fill-opacity="1" fill-rule="nonzero"/></g><g fill="#ffffff" fill-opacity="1"><g transform="translate(83.550866, 209.738747)"><g><path d="M 4.796875 -20.53125 L 1.359375 -20.53125 L 1.359375 -27.28125 L 4.796875 -27.28125 L 4.796875 -29.578125 C 4.796875 -33.609375 5.765625 -36.65625 7.703125 -38.71875 C 9.648438 -40.789062 12.363281 -41.828125 15.84375 -41.828125 C 18.644531 -41.828125 21.242188 -41.117188 23.640625 -39.703125 L 23.265625 -32.359375 C 21.148438 -33.191406 19.382812 -33.609375 17.96875 -33.609375 C 16.882812 -33.609375 16.050781 -33.34375 15.46875 -32.8125 C 14.882812 -32.289062 14.59375 -31.539062 14.59375 -30.5625 C 14.59375 -29.613281 14.90625 -28.519531 15.53125 -27.28125 L 23.15625 -27.28125 L 23.15625 -20.53125 L 16.28125 -20.53125 L 16.28125 0 L 4.796875 0 Z M 4.796875 -20.53125 "/></g></g></g><g fill="#ffffff" fill-opacity="1"><g transform="translate(107.244219, 209.738747)"><g><path d="M 17.046875 0.4375 C 13.992188 0.4375 11.28125 -0.160156 8.90625 -1.359375 C 6.53125 -2.554688 4.675781 -4.21875 3.34375 -6.34375 C 2.019531 -8.46875 1.359375 -10.910156 1.359375 -13.671875 C 1.359375 -16.429688 2.03125 -18.875 3.375 -21 C 4.71875 -23.125 6.578125 -24.765625 8.953125 -25.921875 C 11.335938 -27.085938 14.054688 -27.671875 17.109375 -27.671875 C 20.191406 -27.671875 22.921875 -27.078125 25.296875 -25.890625 C 27.679688 -24.710938 29.523438 -23.070312 30.828125 -20.96875 C 32.140625 -18.863281 32.796875 -16.429688 32.796875 -13.671875 C 32.796875 -10.878906 32.128906 -8.421875 30.796875 -6.296875 C 29.472656 -4.171875 27.617188 -2.515625 25.234375 -1.328125 C 22.859375 -0.148438 20.128906 0.4375 17.046875 0.4375 Z M 17.15625 -7.734375 C 18.644531 -7.734375 19.867188 -8.285156 20.828125 -9.390625 C 21.796875 -10.503906 22.28125 -11.929688 22.28125 -13.671875 C 22.28125 -15.410156 21.796875 -16.832031 20.828125 -17.9375 C 19.867188 -19.050781 18.644531 -19.609375 17.15625 -19.609375 C 15.664062 -19.609375 14.4375 -19.050781 13.46875 -17.9375 C 12.507812 -16.832031 12.03125 -15.410156 12.03125 -13.671875 C 12.03125 -11.929688 12.507812 -10.503906 13.46875 -9.390625 C 14.4375 -8.285156 15.664062 -7.734375 17.15625 -7.734375 Z M 17.15625 -7.734375 "/></g></g></g><g fill="#ffffff" fill-opacity="1"><g transform="translate(141.395326, 209.738747)"><g><path d="M 17.046875 0.4375 C 13.992188 0.4375 11.28125 -0.160156 8.90625 -1.359375 C 6.53125 -2.554688 4.675781 -4.21875 3.34375 -6.34375 C 2.019531 -8.46875 1.359375 -10.910156 1.359375 -13.671875 C 1.359375 -16.429688 2.03125 -18.875 3.375 -21 C 4.71875 -23.125 6.578125 -24.765625 8.953125 -25.921875 C 11.335938 -27.085938 14.054688 -27.671875 17.109375 -27.671875 C 20.191406 -27.671875 22.921875 -27.078125 25.296875 -25.890625 C 27.679688 -24.710938 29.523438 -23.070312 30.828125 -20.96875 C 32.140625 -18.863281 32.796875 -16.429688 32.796875 -13.671875 C 32.796875 -10.878906 32.128906 -8.421875 30.796875 -6.296875 C 29.472656 -4.171875 27.617188 -2.515625 25.234375 -1.328125 C 22.859375 -0.148438 20.128906 0.4375 17.046875 0.4375 Z M 17.15625 -7.734375 C 18.644531 -7.734375 19.867188 -8.285156 20.828125 -9.390625 C 21.796875 -10.503906 22.28125 -11.929688 22.28125 -13.671875 C 22.28125 -15.410156 21.796875 -16.832031 20.828125 -17.9375 C 19.867188 -19.050781 18.644531 -19.609375 17.15625 -19.609375 C 15.664062 -19.609375 14.4375 -19.050781 13.46875 -17.9375 C 12.507812 -16.832031 12.03125 -15.410156 12.03125 -13.671875 C 12.03125 -11.929688 12.507812 -10.503906 13.46875 -9.390625 C 14.4375 -8.285156 15.664062 -7.734375 17.15625 -7.734375 Z M 17.15625 -7.734375 "/></g></g></g><g fill="#ffffff" fill-opacity="1"><g transform="translate(175.546434, 209.738747)"><g><path d="M 14.65625 0.4375 C 12.1875 0.4375 9.941406 -0.210938 7.921875 -1.515625 C 5.910156 -2.828125 4.320312 -4.5625 3.15625 -6.71875 C 2 -8.882812 1.421875 -11.179688 1.421875 -13.609375 C 1.421875 -16.191406 2.023438 -18.5625 3.234375 -20.71875 C 4.453125 -22.882812 6.085938 -24.582031 8.140625 -25.8125 C 10.191406 -27.050781 12.378906 -27.671875 14.703125 -27.671875 C 16.804688 -27.671875 18.59375 -27.234375 20.0625 -26.359375 C 21.539062 -25.492188 22.734375 -24.097656 23.640625 -22.171875 L 23.640625 -35.890625 L 35.125 -37.578125 L 35.125 0 L 23.640625 0 L 23.640625 -5.0625 C 21.929688 -1.394531 18.9375 0.4375 14.65625 0.4375 Z M 18.25 -8.171875 C 19.769531 -8.171875 21.046875 -8.710938 22.078125 -9.796875 C 23.117188 -10.890625 23.640625 -12.160156 23.640625 -13.609375 L 23.640625 -13.828125 C 23.640625 -15.242188 23.09375 -16.46875 22 -17.5 C 20.914062 -18.539062 19.664062 -19.0625 18.25 -19.0625 C 16.71875 -19.0625 15.4375 -18.523438 14.40625 -17.453125 C 13.375 -16.378906 12.859375 -15.097656 12.859375 -13.609375 C 12.859375 -12.085938 13.390625 -10.800781 14.453125 -9.75 C 15.523438 -8.695312 16.789062 -8.171875 18.25 -8.171875 Z M 18.25 -8.171875 "/></g></g></g><g fill="#ffffff" fill-opacity="1"><g transform="translate(213.510258, 209.738747)"><g><path d="M 16.828125 0.4375 C 13.816406 0.4375 11.140625 -0.171875 8.796875 -1.390625 C 6.453125 -2.609375 4.625 -4.28125 3.3125 -6.40625 C 2.007812 -8.53125 1.359375 -10.929688 1.359375 -13.609375 C 1.359375 -16.367188 2.03125 -18.820312 3.375 -20.96875 C 4.71875 -23.113281 6.53125 -24.765625 8.8125 -25.921875 C 11.101562 -27.085938 13.648438 -27.671875 16.453125 -27.671875 C 19.140625 -27.671875 21.4375 -27.078125 23.34375 -25.890625 C 25.25 -24.710938 26.671875 -23.113281 27.609375 -21.09375 C 28.554688 -19.082031 29.03125 -16.828125 29.03125 -14.328125 C 29.03125 -13.671875 28.992188 -13.195312 28.921875 -12.90625 L 12.578125 -10.78125 C 13.015625 -9.507812 13.722656 -8.59375 14.703125 -8.03125 C 15.679688 -7.46875 16.972656 -7.1875 18.578125 -7.1875 C 21.046875 -7.1875 23.710938 -7.820312 26.578125 -9.09375 L 27.9375 -1.796875 C 24.5625 -0.304688 20.859375 0.4375 16.828125 0.4375 Z M 20.59375 -17.640625 C 20.007812 -19.929688 18.628906 -21.078125 16.453125 -21.078125 C 15.140625 -21.078125 14.101562 -20.585938 13.34375 -19.609375 C 12.582031 -18.628906 12.179688 -17.359375 12.140625 -15.796875 Z M 20.59375 -17.640625 "/></g></g></g><g fill="#ffffff" fill-opacity="1"><g transform="translate(243.794168, 209.738747)"><g><path d="M 12.3125 0.4375 C 9.226562 0.4375 6.835938 -0.53125 5.140625 -2.46875 C 3.453125 -4.414062 2.609375 -7.078125 2.609375 -10.453125 L 2.609375 -35.890625 L 14.109375 -37.578125 L 14.109375 -11.28125 C 14.109375 -10.257812 14.351562 -9.519531 14.84375 -9.0625 C 15.332031 -8.613281 16.195312 -8.390625 17.4375 -8.390625 C 18.34375 -8.390625 19.226562 -8.609375 20.09375 -9.046875 L 20.484375 -1.421875 C 18.046875 -0.179688 15.320312 0.4375 12.3125 0.4375 Z M 12.3125 0.4375 "/></g></g></g><g fill="#ffffff" fill-opacity="1"><g transform="translate(264.382881, 209.738747)"><g><path d="M 12.3125 0.4375 C 9.257812 0.4375 6.878906 -0.539062 5.171875 -2.5 C 3.460938 -4.46875 2.609375 -7.140625 2.609375 -10.515625 L 2.609375 -27.28125 L 14.15625 -27.28125 L 14.15625 -11 C 14.15625 -10.164062 14.382812 -9.519531 14.84375 -9.0625 C 15.300781 -8.613281 15.890625 -8.390625 16.609375 -8.390625 C 17.335938 -8.390625 18.082031 -8.609375 18.84375 -9.046875 L 19.4375 -1.46875 C 18.644531 -0.851562 17.601562 -0.378906 16.3125 -0.046875 C 15.019531 0.273438 13.6875 0.4375 12.3125 0.4375 Z M 8.390625 -31.375 C 6.679688 -31.375 5.238281 -31.910156 4.0625 -32.984375 C 2.882812 -34.054688 2.296875 -35.375 2.296875 -36.9375 C 2.296875 -38.488281 2.910156 -39.789062 4.140625 -40.84375 C 5.378906 -41.90625 6.796875 -42.4375 8.390625 -42.4375 C 10.066406 -42.4375 11.507812 -41.890625 12.71875 -40.796875 C 13.9375 -39.703125 14.546875 -38.414062 14.546875 -36.9375 C 14.546875 -35.332031 13.925781 -34.003906 12.6875 -32.953125 C 11.457031 -31.898438 10.023438 -31.375 8.390625 -31.375 Z M 8.390625 -31.375 "/></g></g></g><g fill="#ffffff" fill-opacity="1"><g transform="translate(284.263517, 209.738747)"><g><path d="M 0.046875 -27.28125 L 12.6875 -27.28125 L 16.890625 -10.953125 L 20.96875 -27.28125 L 30.9375 -27.28125 L 22.28125 0 L 9.046875 0 Z M 0.046875 -27.28125 "/></g></g></g><g fill="#ffffff" fill-opacity="1"><g transform="translate(315.309984, 209.738747)"><g><path d="M 16.828125 0.4375 C 13.816406 0.4375 11.140625 -0.171875 8.796875 -1.390625 C 6.453125 -2.609375 4.625 -4.28125 3.3125 -6.40625 C 2.007812 -8.53125 1.359375 -10.929688 1.359375 -13.609375 C 1.359375 -16.367188 2.03125 -18.820312 3.375 -20.96875 C 4.71875 -23.113281 6.53125 -24.765625 8.8125 -25.921875 C 11.101562 -27.085938 13.648438 -27.671875 16.453125 -27.671875 C 19.140625 -27.671875 21.4375 -27.078125 23.34375 -25.890625 C 25.25 -24.710938 26.671875 -23.113281 27.609375 -21.09375 C 28.554688 -19.082031 29.03125 -16.828125 29.03125 -14.328125 C 29.03125 -13.671875 28.992188 -13.195312 28.921875 -12.90625 L 12.578125 -10.78125 C 13.015625 -9.507812 13.722656 -8.59375 14.703125 -8.03125 C 15.679688 -7.46875 16.972656 -7.1875 18.578125 -7.1875 C 21.046875 -7.1875 23.710938 -7.820312 26.578125 -9.09375 L 27.9375 -1.796875 C 24.5625 -0.304688 20.859375 0.4375 16.828125 0.4375 Z M 20.59375 -17.640625 C 20.007812 -19.929688 18.628906 -21.078125 16.453125 -21.078125 C 15.140625 -21.078125 14.101562 -20.585938 13.34375 -19.609375 C 12.582031 -18.628906 12.179688 -17.359375 12.140625 -15.796875 Z M 20.59375 -17.640625 "/></g></g></g><g fill="#ffffff" fill-opacity="1"><g transform="translate(345.593895, 209.738747)"><g><path d="M 2.71875 -26.90625 L 14.21875 -26.90625 L 14.21875 -21.359375 C 15.050781 -23.492188 16.179688 -25.078125 17.609375 -26.109375 C 19.046875 -27.148438 20.726562 -27.671875 22.65625 -27.671875 L 24.234375 -18.796875 C 20.785156 -18.796875 18.253906 -18.421875 16.640625 -17.671875 C 15.023438 -16.929688 14.21875 -15.757812 14.21875 -14.15625 L 14.21875 0 L 2.71875 0 Z M 2.71875 -26.90625 "/></g></g></g></svg>