<svg xmlns="http://www.w3.org/2000/svg" xmlns:xlink="http://www.w3.org/1999/xlink" width="500" zoomAndPan="magnify" viewBox="0 0 375 374.999991" height="500" preserveAspectRatio="xMidYMid meet" version="1.0"><defs><g/><clipPath id="1989220085"><path d="M 87.25 37.5 L 287.5 37.5 L 287.5 280.5 L 87.25 280.5 Z M 87.25 37.5 " clip-rule="nonzero"/></clipPath></defs><g clip-path="url(#1989220085)"><path fill="#eb1700" d="M 216.453125 119.910156 C 219.03125 113.289062 217.742188 105.535156 212.265625 100.203125 L 185.683594 73.390625 C 184.234375 71.9375 181.976562 71.9375 180.527344 73.390625 C 179.078125 74.84375 179.078125 77.105469 180.527344 78.558594 L 195.027344 93.097656 C 196.476562 94.550781 196.476562 96.972656 195.027344 98.265625 C 193.578125 99.71875 191.320312 99.71875 189.871094 98.265625 L 175.371094 83.730469 C 173.921875 82.273438 171.667969 82.273438 170.21875 83.730469 C 168.765625 85.183594 168.765625 87.445312 170.21875 88.898438 L 184.714844 103.433594 C 186.167969 104.890625 186.167969 107.148438 184.714844 108.605469 C 183.910156 109.410156 183.105469 109.734375 182.136719 109.734375 C 181.171875 109.734375 180.207031 109.410156 179.5625 108.605469 L 165.0625 94.066406 C 163.613281 92.613281 161.355469 92.613281 159.90625 94.066406 C 159.261719 94.710938 158.777344 95.683594 158.777344 96.652344 C 158.777344 97.621094 159.101562 98.589844 159.90625 99.234375 L 186.648438 126.046875 C 191.964844 131.378906 199.699219 132.832031 206.304688 130.25 L 260.59375 184.199219 C 259.789062 185.488281 258.984375 186.78125 258.019531 188.074219 C 255.277344 191.953125 252.21875 195.667969 248.675781 199.058594 L 187.453125 260.4375 L 126.558594 199.382812 C 110.125 183.066406 101.265625 161.261719 101.265625 138.164062 C 101.265625 129.601562 102.554688 121.363281 104.808594 113.289062 C 104.972656 112.964844 104.972656 112.480469 105.132812 112.15625 L 156.039062 162.390625 C 152.980469 171.761719 157.488281 185.167969 167.960938 195.828125 C 181.171875 209.074219 198.730469 212.789062 207.433594 204.066406 C 215.96875 195.503906 212.265625 177.738281 199.214844 164.492188 C 188.582031 153.992188 175.210938 149.46875 165.867188 152.539062 L 110.929688 98.425781 C 114.960938 90.675781 120.113281 83.40625 126.558594 77.105469 C 142.828125 60.792969 164.417969 51.746094 187.453125 51.746094 C 210.492188 51.746094 232.082031 60.792969 248.511719 77.105469 C 264.785156 93.421875 273.804688 115.226562 273.804688 138.324219 C 273.804688 149.632812 271.710938 160.453125 267.523438 170.628906 Z M 258.179688 67.253906 C 239.328125 48.355469 214.199219 37.855469 187.453125 37.855469 C 160.710938 37.855469 135.582031 48.355469 116.730469 67.253906 C 110.449219 73.550781 104.972656 80.660156 100.621094 88.25 C 100.136719 89.058594 99.65625 89.867188 99.171875 90.835938 C 97.238281 94.226562 95.625 97.78125 94.175781 101.496094 C 94.015625 101.820312 93.855469 102.144531 93.695312 102.628906 C 89.503906 113.933594 87.25 125.886719 87.25 138.324219 C 87.25 165.136719 97.722656 190.335938 116.570312 209.234375 L 187.453125 280.144531 L 258.179688 209.234375 C 261.5625 205.84375 264.785156 202.128906 267.683594 198.25 C 268.652344 196.957031 269.457031 195.828125 270.421875 194.535156 C 271.871094 192.4375 273.324219 190.175781 274.449219 187.914062 C 275.738281 185.652344 276.867188 183.390625 277.996094 181.128906 C 284.277344 167.882812 287.5 153.347656 287.5 138.324219 C 287.5 111.351562 277.1875 86.152344 258.179688 67.253906 Z M 258.179688 67.253906 " fill-opacity="1" fill-rule="nonzero"/></g><g fill="#eb1700" fill-opacity="1"><g transform="translate(66.991107, 328.585906)"><g><path d="M 4.03125 -17.28125 L 1.140625 -17.28125 L 1.140625 -22.96875 L 4.03125 -22.96875 L 4.03125 -24.90625 C 4.03125 -28.289062 4.847656 -30.851562 6.484375 -32.59375 C 8.117188 -34.34375 10.40625 -35.21875 13.34375 -35.21875 C 15.695312 -35.21875 17.882812 -34.625 19.90625 -33.4375 L 19.578125 -27.234375 C 17.804688 -27.941406 16.328125 -28.296875 15.140625 -28.296875 C 14.210938 -28.296875 13.503906 -28.070312 13.015625 -27.625 C 12.535156 -27.1875 12.296875 -26.554688 12.296875 -25.734375 C 12.296875 -24.929688 12.550781 -24.007812 13.0625 -22.96875 L 19.484375 -22.96875 L 19.484375 -17.28125 L 13.71875 -17.28125 L 13.71875 0 L 4.03125 0 Z M 4.03125 -17.28125 "/></g></g></g><g fill="#eb1700" fill-opacity="1"><g transform="translate(86.933145, 328.585906)"><g><path d="M 14.359375 0.359375 C 11.785156 0.359375 9.5 -0.140625 7.5 -1.140625 C 5.5 -2.148438 3.9375 -3.550781 2.8125 -5.34375 C 1.695312 -7.132812 1.140625 -9.191406 1.140625 -11.515625 C 1.140625 -13.835938 1.707031 -15.890625 2.84375 -17.671875 C 3.976562 -19.460938 5.546875 -20.847656 7.546875 -21.828125 C 9.546875 -22.804688 11.832031 -23.296875 14.40625 -23.296875 C 17 -23.296875 19.296875 -22.796875 21.296875 -21.796875 C 23.304688 -20.804688 24.859375 -19.425781 25.953125 -17.65625 C 27.054688 -15.882812 27.609375 -13.835938 27.609375 -11.515625 C 27.609375 -9.160156 27.050781 -7.085938 25.9375 -5.296875 C 24.820312 -3.503906 23.257812 -2.113281 21.25 -1.125 C 19.25 -0.132812 16.953125 0.359375 14.359375 0.359375 Z M 14.453125 -6.515625 C 15.703125 -6.515625 16.726562 -6.976562 17.53125 -7.90625 C 18.34375 -8.84375 18.75 -10.046875 18.75 -11.515625 C 18.75 -12.984375 18.34375 -14.179688 17.53125 -15.109375 C 16.726562 -16.046875 15.703125 -16.515625 14.453125 -16.515625 C 13.191406 -16.515625 12.15625 -16.046875 11.34375 -15.109375 C 10.539062 -14.179688 10.140625 -12.984375 10.140625 -11.515625 C 10.140625 -10.046875 10.539062 -8.84375 11.34375 -7.90625 C 12.15625 -6.976562 13.191406 -6.515625 14.453125 -6.515625 Z M 14.453125 -6.515625 "/></g></g></g><g fill="#eb1700" fill-opacity="1"><g transform="translate(115.677189, 328.585906)"><g><path d="M 14.359375 0.359375 C 11.785156 0.359375 9.5 -0.140625 7.5 -1.140625 C 5.5 -2.148438 3.9375 -3.550781 2.8125 -5.34375 C 1.695312 -7.132812 1.140625 -9.191406 1.140625 -11.515625 C 1.140625 -13.835938 1.707031 -15.890625 2.84375 -17.671875 C 3.976562 -19.460938 5.546875 -20.847656 7.546875 -21.828125 C 9.546875 -22.804688 11.832031 -23.296875 14.40625 -23.296875 C 17 -23.296875 19.296875 -22.796875 21.296875 -21.796875 C 23.304688 -20.804688 24.859375 -19.425781 25.953125 -17.65625 C 27.054688 -15.882812 27.609375 -13.835938 27.609375 -11.515625 C 27.609375 -9.160156 27.050781 -7.085938 25.9375 -5.296875 C 24.820312 -3.503906 23.257812 -2.113281 21.25 -1.125 C 19.25 -0.132812 16.953125 0.359375 14.359375 0.359375 Z M 14.453125 -6.515625 C 15.703125 -6.515625 16.726562 -6.976562 17.53125 -7.90625 C 18.34375 -8.84375 18.75 -10.046875 18.75 -11.515625 C 18.75 -12.984375 18.34375 -14.179688 17.53125 -15.109375 C 16.726562 -16.046875 15.703125 -16.515625 14.453125 -16.515625 C 13.191406 -16.515625 12.15625 -16.046875 11.34375 -15.109375 C 10.539062 -14.179688 10.140625 -12.984375 10.140625 -11.515625 C 10.140625 -10.046875 10.539062 -8.84375 11.34375 -7.90625 C 12.15625 -6.976562 13.191406 -6.515625 14.453125 -6.515625 Z M 14.453125 -6.515625 "/></g></g></g><g fill="#eb1700" fill-opacity="1"><g transform="translate(144.421233, 328.585906)"><g><path d="M 12.34375 0.359375 C 10.257812 0.359375 8.367188 -0.1875 6.671875 -1.28125 C 4.972656 -2.382812 3.632812 -3.84375 2.65625 -5.65625 C 1.675781 -7.476562 1.1875 -9.414062 1.1875 -11.46875 C 1.1875 -13.632812 1.695312 -15.625 2.71875 -17.4375 C 3.75 -19.257812 5.128906 -20.691406 6.859375 -21.734375 C 8.585938 -22.773438 10.425781 -23.296875 12.375 -23.296875 C 14.15625 -23.296875 15.660156 -22.925781 16.890625 -22.1875 C 18.128906 -21.457031 19.132812 -20.285156 19.90625 -18.671875 L 19.90625 -30.21875 L 29.578125 -31.640625 L 29.578125 0 L 19.90625 0 L 19.90625 -4.265625 C 18.46875 -1.179688 15.945312 0.359375 12.34375 0.359375 Z M 15.359375 -6.875 C 16.640625 -6.875 17.71875 -7.332031 18.59375 -8.25 C 19.46875 -9.164062 19.90625 -10.238281 19.90625 -11.46875 L 19.90625 -11.640625 C 19.90625 -12.835938 19.445312 -13.867188 18.53125 -14.734375 C 17.613281 -15.609375 16.554688 -16.046875 15.359375 -16.046875 C 14.078125 -16.046875 13 -15.59375 12.125 -14.6875 C 11.257812 -13.789062 10.828125 -12.71875 10.828125 -11.46875 C 10.828125 -10.175781 11.273438 -9.085938 12.171875 -8.203125 C 13.078125 -7.316406 14.140625 -6.875 15.359375 -6.875 Z M 15.359375 -6.875 "/></g></g></g><g fill="#eb1700" fill-opacity="1"><g transform="translate(176.374347, 328.585906)"><g><path d="M 14.171875 0.359375 C 11.628906 0.359375 9.375 -0.148438 7.40625 -1.171875 C 5.4375 -2.191406 3.898438 -3.597656 2.796875 -5.390625 C 1.691406 -7.179688 1.140625 -9.207031 1.140625 -11.46875 C 1.140625 -13.789062 1.707031 -15.851562 2.84375 -17.65625 C 3.976562 -19.457031 5.503906 -20.847656 7.421875 -21.828125 C 9.347656 -22.804688 11.488281 -23.296875 13.84375 -23.296875 C 16.113281 -23.296875 18.050781 -22.796875 19.65625 -21.796875 C 21.257812 -20.804688 22.457031 -19.460938 23.25 -17.765625 C 24.039062 -16.066406 24.4375 -14.164062 24.4375 -12.0625 C 24.4375 -11.507812 24.40625 -11.113281 24.34375 -10.875 L 10.59375 -9.078125 C 10.957031 -8.003906 11.550781 -7.226562 12.375 -6.75 C 13.207031 -6.28125 14.296875 -6.046875 15.640625 -6.046875 C 17.710938 -6.046875 19.957031 -6.582031 22.375 -7.65625 L 23.53125 -1.515625 C 20.6875 -0.265625 17.566406 0.359375 14.171875 0.359375 Z M 17.328125 -14.859375 C 16.835938 -16.785156 15.675781 -17.75 13.84375 -17.75 C 12.75 -17.75 11.878906 -17.332031 11.234375 -16.5 C 10.585938 -15.675781 10.253906 -14.609375 10.234375 -13.296875 Z M 17.328125 -14.859375 "/></g></g></g><g fill="#eb1700" fill-opacity="1"><g transform="translate(201.863485, 328.585906)"><g><path d="M 10.359375 0.359375 C 7.765625 0.359375 5.753906 -0.457031 4.328125 -2.09375 C 2.910156 -3.726562 2.203125 -5.96875 2.203125 -8.8125 L 2.203125 -30.21875 L 11.875 -31.640625 L 11.875 -9.5 C 11.875 -8.632812 12.078125 -8.007812 12.484375 -7.625 C 12.898438 -7.25 13.628906 -7.0625 14.671875 -7.0625 C 15.441406 -7.0625 16.191406 -7.242188 16.921875 -7.609375 L 17.25 -1.1875 C 15.195312 -0.15625 12.898438 0.359375 10.359375 0.359375 Z M 10.359375 0.359375 "/></g></g></g><g fill="#eb1700" fill-opacity="1"><g transform="translate(219.192436, 328.585906)"><g><path d="M 10.359375 0.359375 C 7.796875 0.359375 5.796875 -0.460938 4.359375 -2.109375 C 2.921875 -3.753906 2.203125 -6 2.203125 -8.84375 L 2.203125 -22.96875 L 11.921875 -22.96875 L 11.921875 -9.265625 C 11.921875 -8.554688 12.109375 -8.007812 12.484375 -7.625 C 12.867188 -7.25 13.367188 -7.0625 13.984375 -7.0625 C 14.597656 -7.0625 15.226562 -7.242188 15.875 -7.609375 L 16.375 -1.234375 C 15.695312 -0.710938 14.816406 -0.316406 13.734375 -0.046875 C 12.648438 0.222656 11.523438 0.359375 10.359375 0.359375 Z M 7.0625 -26.421875 C 5.625 -26.421875 4.40625 -26.867188 3.40625 -27.765625 C 2.414062 -28.671875 1.921875 -29.78125 1.921875 -31.09375 C 1.921875 -32.40625 2.4375 -33.503906 3.46875 -34.390625 C 4.507812 -35.273438 5.707031 -35.71875 7.0625 -35.71875 C 8.46875 -35.71875 9.679688 -35.257812 10.703125 -34.34375 C 11.722656 -33.425781 12.234375 -32.34375 12.234375 -31.09375 C 12.234375 -29.75 11.710938 -28.632812 10.671875 -27.75 C 9.640625 -26.863281 8.4375 -26.421875 7.0625 -26.421875 Z M 7.0625 -26.421875 "/></g></g></g><g fill="#eb1700" fill-opacity="1"><g transform="translate(235.925414, 328.585906)"><g><path d="M 0.046875 -22.96875 L 10.6875 -22.96875 L 14.21875 -9.21875 L 17.65625 -22.96875 L 26.046875 -22.96875 L 18.75 0 L 7.609375 0 Z M 0.046875 -22.96875 "/></g></g></g><g fill="#eb1700" fill-opacity="1"><g transform="translate(262.056371, 328.585906)"><g><path d="M 14.171875 0.359375 C 11.628906 0.359375 9.375 -0.148438 7.40625 -1.171875 C 5.4375 -2.191406 3.898438 -3.597656 2.796875 -5.390625 C 1.691406 -7.179688 1.140625 -9.207031 1.140625 -11.46875 C 1.140625 -13.789062 1.707031 -15.851562 2.84375 -17.65625 C 3.976562 -19.457031 5.503906 -20.847656 7.421875 -21.828125 C 9.347656 -22.804688 11.488281 -23.296875 13.84375 -23.296875 C 16.113281 -23.296875 18.050781 -22.796875 19.65625 -21.796875 C 21.257812 -20.804688 22.457031 -19.460938 23.25 -17.765625 C 24.039062 -16.066406 24.4375 -14.164062 24.4375 -12.0625 C 24.4375 -11.507812 24.40625 -11.113281 24.34375 -10.875 L 10.59375 -9.078125 C 10.957031 -8.003906 11.550781 -7.226562 12.375 -6.75 C 13.207031 -6.28125 14.296875 -6.046875 15.640625 -6.046875 C 17.710938 -6.046875 19.957031 -6.582031 22.375 -7.65625 L 23.53125 -1.515625 C 20.6875 -0.265625 17.566406 0.359375 14.171875 0.359375 Z M 17.328125 -14.859375 C 16.835938 -16.785156 15.675781 -17.75 13.84375 -17.75 C 12.75 -17.75 11.878906 -17.332031 11.234375 -16.5 C 10.585938 -15.675781 10.253906 -14.609375 10.234375 -13.296875 Z M 17.328125 -14.859375 "/></g></g></g><g fill="#eb1700" fill-opacity="1"><g transform="translate(287.54552, 328.585906)"><g><path d="M 2.296875 -22.65625 L 11.96875 -22.65625 L 11.96875 -17.984375 C 12.675781 -19.785156 13.628906 -21.117188 14.828125 -21.984375 C 16.035156 -22.859375 17.453125 -23.296875 19.078125 -23.296875 L 20.40625 -15.828125 C 17.5 -15.828125 15.363281 -15.507812 14 -14.875 C 12.644531 -14.25 11.96875 -13.265625 11.96875 -11.921875 L 11.96875 0 L 2.296875 0 Z M 2.296875 -22.65625 "/></g></g></g></svg>