<svg xmlns="http://www.w3.org/2000/svg" xmlns:xlink="http://www.w3.org/1999/xlink" width="500" zoomAndPan="magnify" viewBox="0 0 375 374.999991" height="500" preserveAspectRatio="xMidYMid meet" version="1.0"><defs><clipPath id="0a00c4fd83"><path d="M 35.039062 3 L 340.289062 3 L 340.289062 371.976562 L 35.039062 371.976562 Z M 35.039062 3 " clip-rule="nonzero"/></clipPath></defs><g clip-path="url(#0a00c4fd83)"><path fill="#ffffff" d="M 231.992188 128.117188 C 235.917969 118.0625 233.953125 106.289062 225.605469 98.195312 L 185.085938 57.476562 C 182.875 55.269531 179.4375 55.269531 177.226562 57.476562 C 175.015625 59.683594 175.015625 63.117188 177.226562 65.324219 L 199.328125 87.402344 C 201.539062 89.609375 201.539062 93.289062 199.328125 95.25 C 197.117188 97.457031 193.679688 97.457031 191.46875 95.25 L 169.367188 73.175781 C 167.160156 70.964844 163.71875 70.964844 161.511719 73.175781 C 159.300781 75.382812 159.300781 78.816406 161.511719 81.023438 L 183.613281 103.097656 C 185.824219 105.308594 185.824219 108.742188 183.613281 110.949219 C 182.382812 112.175781 181.15625 112.664062 179.683594 112.664062 C 178.210938 112.664062 176.734375 112.175781 175.753906 110.949219 L 153.652344 88.871094 C 151.441406 86.664062 148.003906 86.664062 145.792969 88.871094 C 144.8125 89.855469 144.074219 91.324219 144.074219 92.796875 C 144.074219 94.269531 144.566406 95.742188 145.792969 96.722656 L 186.558594 137.441406 C 194.664062 145.535156 206.449219 147.742188 216.519531 143.816406 L 299.277344 225.742188 C 298.050781 227.707031 296.820312 229.667969 295.347656 231.628906 C 291.175781 237.515625 286.507812 243.160156 281.105469 248.308594 L 187.785156 341.519531 L 94.960938 248.800781 C 69.910156 224.027344 56.402344 190.914062 56.402344 155.835938 C 56.402344 142.835938 58.367188 130.328125 61.808594 118.0625 C 62.050781 117.570312 62.050781 116.835938 62.296875 116.34375 L 139.898438 192.628906 C 135.234375 206.855469 142.109375 227.214844 158.070312 243.402344 C 178.210938 263.519531 204.976562 269.160156 218.238281 255.914062 C 231.253906 242.914062 225.605469 215.933594 205.714844 195.816406 C 189.507812 179.875 169.125 173.007812 154.878906 177.667969 L 71.136719 95.496094 C 77.277344 83.722656 85.136719 72.683594 94.960938 63.117188 C 119.761719 38.34375 152.667969 24.605469 187.785156 24.605469 C 222.902344 24.605469 255.8125 38.34375 280.859375 63.117188 C 305.664062 87.890625 319.414062 121.003906 319.414062 156.082031 C 319.414062 173.25 316.222656 189.6875 309.835938 205.140625 Z M 295.59375 48.15625 C 266.863281 19.457031 228.550781 3.511719 187.785156 3.511719 C 147.019531 3.511719 108.710938 19.457031 79.980469 48.15625 C 70.402344 57.722656 62.050781 68.515625 55.421875 80.042969 C 54.683594 81.269531 53.949219 82.496094 53.210938 83.96875 C 50.265625 89.117188 47.808594 94.515625 45.597656 100.15625 C 45.351562 100.648438 45.109375 101.136719 44.863281 101.871094 C 38.476562 119.042969 35.039062 137.195312 35.039062 156.082031 C 35.039062 196.800781 51 235.0625 79.734375 263.761719 L 187.785156 371.445312 L 295.59375 263.761719 C 300.75 258.613281 305.664062 252.96875 310.082031 247.082031 C 311.558594 245.121094 312.785156 243.402344 314.257812 241.441406 C 316.46875 238.253906 318.679688 234.820312 320.398438 231.386719 C 322.363281 227.949219 324.082031 224.515625 325.800781 221.082031 C 335.378906 200.96875 340.289062 178.894531 340.289062 156.082031 C 340.289062 115.117188 324.570312 76.855469 295.59375 48.15625 Z M 295.59375 48.15625 " fill-opacity="1" fill-rule="nonzero"/></g></svg>